<svg width="500" height="520" viewBox="0 0 500 520" fill="none" xmlns="http://www.w3.org/2000/svg">
<g filter="url(#filter0_d_0_9102)">
<g filter="url(#filter1_d_0_9102)">
<rect width="500" height="500" rx="20" fill="white"/>
</g>
</g>
<path d="M285.625 292.438L303.812 310.625L364.438 250L303.812 189.375L285.625 207.563L328.062 250L285.625 292.438ZM212.875 207.563L194.688 189.375L134.062 250L194.688 310.625L212.875 292.438L170.438 250L212.875 207.563ZM260.866 181.518L274.021 185.107L237.646 318.482L224.491 314.893L260.866 181.518V181.518Z" fill="#4199FF"/>
<rect x="40" y="40" width="173" height="28" rx="14" fill="#C0D4E3"/>
<rect x="40" y="88" width="260" height="28" rx="14" fill="#C0D4E3"/>
<g filter="url(#filter2_d_0_9102)">
<rect x="40" y="390" width="420" height="70" rx="20" fill="#C0D4E3"/>
</g>
<g opacity="0.3">
<g filter="url(#filter3_d_0_9102)">
<rect x="168.16" y="415" width="168" height="20" rx="10" fill="#E1E8F1"/>
</g>
</g>
<path fill-rule="evenodd" clip-rule="evenodd" d="M445 55C447.761 55 450 57.2386 450 60C450 62.7614 447.761 65 445 65C442.239 65 440 62.7614 440 60C440 57.2386 442.239 55 445 55ZM430 55C432.761 55 435 57.2386 435 60C435 62.7614 432.761 65 430 65C427.239 65 425 62.7614 425 60C425 57.2386 427.239 55 430 55ZM415 55C417.761 55 420 57.2386 420 60C420 62.7614 417.761 65 415 65C412.239 65 410 62.7614 410 60C410 57.2386 412.239 55 415 55Z" fill="#E1E8F1"/>
<defs>
<filter id="filter0_d_0_9102" x="0" y="0" width="500" height="520" filterUnits="userSpaceOnUse" color-interpolation-filters="sRGB">
<feFlood flood-opacity="0" result="BackgroundImageFix"/>
<feColorMatrix in="SourceAlpha" type="matrix" values="0 0 0 0 0 0 0 0 0 0 0 0 0 0 0 0 0 0 127 0" result="hardAlpha"/>
<feMorphology radius="40" operator="erode" in="SourceAlpha" result="effect1_dropShadow_0_9102"/>
<feOffset dy="20"/>
<feGaussianBlur stdDeviation="20"/>
<feColorMatrix type="matrix" values="0 0 0 0 0.858824 0 0 0 0 0.890196 0 0 0 0 0.929412 0 0 0 0.4 0"/>
<feBlend mode="normal" in2="BackgroundImageFix" result="effect1_dropShadow_0_9102"/>
<feBlend mode="normal" in="SourceGraphic" in2="effect1_dropShadow_0_9102" result="shape"/>
</filter>
<filter id="filter1_d_0_9102" x="0" y="0" width="500" height="520" filterUnits="userSpaceOnUse" color-interpolation-filters="sRGB">
<feFlood flood-opacity="0" result="BackgroundImageFix"/>
<feColorMatrix in="SourceAlpha" type="matrix" values="0 0 0 0 0 0 0 0 0 0 0 0 0 0 0 0 0 0 127 0" result="hardAlpha"/>
<feMorphology radius="40" operator="erode" in="SourceAlpha" result="effect1_dropShadow_0_9102"/>
<feOffset dy="20"/>
<feGaussianBlur stdDeviation="20"/>
<feColorMatrix type="matrix" values="0 0 0 0 0.858824 0 0 0 0 0.890196 0 0 0 0 0.929412 0 0 0 0.4 0"/>
<feBlend mode="normal" in2="BackgroundImageFix" result="effect1_dropShadow_0_9102"/>
<feBlend mode="normal" in="SourceGraphic" in2="effect1_dropShadow_0_9102" result="shape"/>
</filter>
<filter id="filter2_d_0_9102" x="40" y="390" width="420" height="90" filterUnits="userSpaceOnUse" color-interpolation-filters="sRGB">
<feFlood flood-opacity="0" result="BackgroundImageFix"/>
<feColorMatrix in="SourceAlpha" type="matrix" values="0 0 0 0 0 0 0 0 0 0 0 0 0 0 0 0 0 0 127 0" result="hardAlpha"/>
<feMorphology radius="40" operator="erode" in="SourceAlpha" result="effect1_dropShadow_0_9102"/>
<feOffset dy="20"/>
<feGaussianBlur stdDeviation="20"/>
<feColorMatrix type="matrix" values="0 0 0 0 0.858824 0 0 0 0 0.890196 0 0 0 0 0.929412 0 0 0 0.4 0"/>
<feBlend mode="normal" in2="BackgroundImageFix" result="effect1_dropShadow_0_9102"/>
<feBlend mode="normal" in="SourceGraphic" in2="effect1_dropShadow_0_9102" result="shape"/>
</filter>
<filter id="filter3_d_0_9102" x="128.16" y="415" width="248" height="100" filterUnits="userSpaceOnUse" color-interpolation-filters="sRGB">
<feFlood flood-opacity="0" result="BackgroundImageFix"/>
<feColorMatrix in="SourceAlpha" type="matrix" values="0 0 0 0 0 0 0 0 0 0 0 0 0 0 0 0 0 0 127 0" result="hardAlpha"/>
<feMorphology radius="40" operator="erode" in="SourceAlpha" result="effect1_dropShadow_0_9102"/>
<feOffset dy="40"/>
<feGaussianBlur stdDeviation="40"/>
<feColorMatrix type="matrix" values="0 0 0 0 0.858824 0 0 0 0 0.890196 0 0 0 0 0.929412 0 0 0 0.5 0"/>
<feBlend mode="normal" in2="BackgroundImageFix" result="effect1_dropShadow_0_9102"/>
<feBlend mode="normal" in="SourceGraphic" in2="effect1_dropShadow_0_9102" result="shape"/>
</filter>
</defs>
</svg>
