<svg width="500" height="520" viewBox="0 0 500 520" fill="none" xmlns="http://www.w3.org/2000/svg">
<g filter="url(#filter0_d_0_9160)">
<g filter="url(#filter1_d_0_9160)">
<rect width="500" height="500" rx="20" fill="white"/>
</g>
</g>
<rect x="40" y="40" width="60" height="12" rx="6" fill="#E1E8F1"/>
<path fill-rule="evenodd" clip-rule="evenodd" d="M455 55C457.761 55 460 57.2386 460 60C460 62.7614 457.761 65 455 65C452.239 65 450 62.7614 450 60C450 57.2386 452.239 55 455 55ZM440 55C442.761 55 445 57.2386 445 60C445 62.7614 442.761 65 440 65C437.239 65 435 62.7614 435 60C435 57.2386 437.239 55 440 55ZM425 55C427.761 55 430 57.2386 430 60C430 62.7614 427.761 65 425 65C422.239 65 420 62.7614 420 60C420 57.2386 422.239 55 425 55Z" fill="#E1E8F1"/>
<mask id="mask0_0_9160" style="mask-type:alpha" maskUnits="userSpaceOnUse" x="40" y="98" width="420" height="244">
<rect x="40" y="98" width="420" height="244" fill="white"/>
</mask>
<g mask="url(#mask0_0_9160)">
<g opacity="0.9">
<rect x="40" y="224" width="31" height="12" rx="6" fill="#E1E8F1"/>
</g>
<g opacity="0.9">
<rect x="40" y="266" width="31" height="12" rx="6" fill="#E1E8F1"/>
</g>
<g opacity="0.9">
<rect x="40" y="308" width="31" height="12" rx="6" fill="#E1E8F1"/>
</g>
<g opacity="0.9">
<rect x="40" y="182" width="31" height="12" rx="6" fill="#E1E8F1"/>
</g>
<g opacity="0.9">
<rect x="40" y="140" width="31" height="12" rx="6" fill="#E1E8F1"/>
</g>
<g opacity="0.9">
<rect x="40" y="98" width="31" height="12" rx="6" fill="#E1E8F1"/>
</g>
<g opacity="0.9">
<rect x="121" y="330" width="60" height="12" rx="6" fill="#E1E8F1"/>
</g>
<g opacity="0.9">
<rect x="261" y="330" width="60" height="12" rx="6" fill="#E1E8F1"/>
</g>
<g opacity="0.9">
<rect x="401" y="330" width="60" height="12" rx="6" fill="#E1E8F1"/>
</g>
</g>
<mask id="mask1_0_9160" style="mask-type:alpha" maskUnits="userSpaceOnUse" x="91" y="98" width="369" height="192">
<rect x="91" y="98" width="369" height="192" rx="20" fill="white"/>
</mask>
<g mask="url(#mask1_0_9160)">
<g opacity="0.2" filter="url(#filter2_d_0_9160)">
<rect x="91" y="98" width="369" height="192" rx="20" fill="#00D5C8"/>
</g>
<path opacity="0.5" fill-rule="evenodd" clip-rule="evenodd" d="M1041 334.578V752H91V228.221L140.928 202.219C163.15 190.645 189.414 189.739 212.381 199.754V199.754C240.33 211.942 272.713 207.808 296.705 188.991L303.708 183.498C342.393 153.158 398.405 160.239 428.322 199.253L430.239 201.752C452.916 231.325 492.348 242.452 527.139 229.095V229.095C548.456 220.912 572.184 221.746 592.874 231.405L595.224 232.502C627.607 247.622 665.863 242.201 692.771 218.68L708.138 205.247C728.749 187.231 757.629 182.078 783.198 191.856V191.856C810.935 202.461 842.325 195.443 862.903 174.034L870.721 165.9C906.392 128.789 965.726 128.648 1001.57 165.59L1012.77 177.127C1030.87 195.787 1041 220.765 1041 246.766V334.578Z" fill="#00D5C8"/>
<path fill-rule="evenodd" clip-rule="evenodd" d="M1041 326.056V552H91V283.971L118.505 266.527C139.947 252.929 167.064 251.978 189.406 264.04L191.352 265.091C214.159 277.405 242.035 275.387 262.831 259.918L266.972 256.838C289.7 239.932 321.132 241.134 342.503 259.725V259.725C357.867 273.091 378.942 277.795 398.531 272.23L409.717 269.053C425.814 264.48 442.927 264.958 458.744 270.422L459.699 270.752C484.394 279.284 511.64 275.978 533.578 261.788L540.552 257.277C557.334 246.423 577.977 243.32 597.208 248.761V248.761C618.359 254.746 641.095 250.369 658.513 236.96L669.501 228.501C692.661 210.672 725.089 211.289 747.555 229.986L755.669 236.74C770.109 248.757 790.352 250.928 807.011 242.246V242.246C823.7 233.549 843.982 235.744 858.424 247.811L874.133 260.938C891.722 275.635 916.492 278.133 936.662 267.243V267.243C960.913 254.15 991.086 260.643 1007.8 282.553L1041 326.056Z" fill="#00D5C8"/>
</g>
<g filter="url(#filter3_d_0_9160)">
<rect x="40" y="428" width="221" height="12" rx="6" fill="#E1E8F1"/>
</g>
<g filter="url(#filter4_d_0_9160)">
<rect x="40" y="402" width="276" height="12" rx="6" fill="#E1E8F1"/>
</g>
<path fill-rule="evenodd" clip-rule="evenodd" d="M440 435.724L431.195 439.696C429.442 440.486 427.39 439.683 426.611 437.902C426.365 437.338 426.269 436.719 426.331 436.105L427.328 426.369L420.89 419.088C419.608 417.638 419.725 415.407 421.152 414.105C421.603 413.693 422.153 413.408 422.747 413.279L432.168 411.233L436.994 402.762C437.955 401.075 440.079 400.499 441.739 401.475C442.265 401.784 442.701 402.228 443.005 402.762L447.831 411.233L457.252 413.279C459.128 413.686 460.323 415.561 459.923 417.467C459.796 418.07 459.515 418.629 459.11 419.088L452.671 426.369L453.668 436.105C453.866 438.044 452.481 439.779 450.573 439.98C449.969 440.044 449.36 439.946 448.805 439.696L440 435.724Z" fill="#E1E8F1"/>
<defs>
<filter id="filter0_d_0_9160" x="0" y="0" width="500" height="520" filterUnits="userSpaceOnUse" color-interpolation-filters="sRGB">
<feFlood flood-opacity="0" result="BackgroundImageFix"/>
<feColorMatrix in="SourceAlpha" type="matrix" values="0 0 0 0 0 0 0 0 0 0 0 0 0 0 0 0 0 0 127 0" result="hardAlpha"/>
<feMorphology radius="40" operator="erode" in="SourceAlpha" result="effect1_dropShadow_0_9160"/>
<feOffset dy="20"/>
<feGaussianBlur stdDeviation="20"/>
<feColorMatrix type="matrix" values="0 0 0 0 0.858824 0 0 0 0 0.890196 0 0 0 0 0.929412 0 0 0 0.4 0"/>
<feBlend mode="normal" in2="BackgroundImageFix" result="effect1_dropShadow_0_9160"/>
<feBlend mode="normal" in="SourceGraphic" in2="effect1_dropShadow_0_9160" result="shape"/>
</filter>
<filter id="filter1_d_0_9160" x="0" y="0" width="500" height="520" filterUnits="userSpaceOnUse" color-interpolation-filters="sRGB">
<feFlood flood-opacity="0" result="BackgroundImageFix"/>
<feColorMatrix in="SourceAlpha" type="matrix" values="0 0 0 0 0 0 0 0 0 0 0 0 0 0 0 0 0 0 127 0" result="hardAlpha"/>
<feMorphology radius="40" operator="erode" in="SourceAlpha" result="effect1_dropShadow_0_9160"/>
<feOffset dy="20"/>
<feGaussianBlur stdDeviation="20"/>
<feColorMatrix type="matrix" values="0 0 0 0 0.858824 0 0 0 0 0.890196 0 0 0 0 0.929412 0 0 0 0.4 0"/>
<feBlend mode="normal" in2="BackgroundImageFix" result="effect1_dropShadow_0_9160"/>
<feBlend mode="normal" in="SourceGraphic" in2="effect1_dropShadow_0_9160" result="shape"/>
</filter>
<filter id="filter2_d_0_9160" x="91" y="98" width="369" height="212" filterUnits="userSpaceOnUse" color-interpolation-filters="sRGB">
<feFlood flood-opacity="0" result="BackgroundImageFix"/>
<feColorMatrix in="SourceAlpha" type="matrix" values="0 0 0 0 0 0 0 0 0 0 0 0 0 0 0 0 0 0 127 0" result="hardAlpha"/>
<feMorphology radius="40" operator="erode" in="SourceAlpha" result="effect1_dropShadow_0_9160"/>
<feOffset dy="20"/>
<feGaussianBlur stdDeviation="20"/>
<feColorMatrix type="matrix" values="0 0 0 0 0.858824 0 0 0 0 0.890196 0 0 0 0 0.929412 0 0 0 0.4 0"/>
<feBlend mode="normal" in2="BackgroundImageFix" result="effect1_dropShadow_0_9160"/>
<feBlend mode="normal" in="SourceGraphic" in2="effect1_dropShadow_0_9160" result="shape"/>
</filter>
<filter id="filter3_d_0_9160" x="0" y="428" width="301" height="92" filterUnits="userSpaceOnUse" color-interpolation-filters="sRGB">
<feFlood flood-opacity="0" result="BackgroundImageFix"/>
<feColorMatrix in="SourceAlpha" type="matrix" values="0 0 0 0 0 0 0 0 0 0 0 0 0 0 0 0 0 0 127 0" result="hardAlpha"/>
<feMorphology radius="40" operator="erode" in="SourceAlpha" result="effect1_dropShadow_0_9160"/>
<feOffset dy="40"/>
<feGaussianBlur stdDeviation="40"/>
<feColorMatrix type="matrix" values="0 0 0 0 0.858824 0 0 0 0 0.890196 0 0 0 0 0.929412 0 0 0 0.5 0"/>
<feBlend mode="normal" in2="BackgroundImageFix" result="effect1_dropShadow_0_9160"/>
<feBlend mode="normal" in="SourceGraphic" in2="effect1_dropShadow_0_9160" result="shape"/>
</filter>
<filter id="filter4_d_0_9160" x="0" y="402" width="356" height="92" filterUnits="userSpaceOnUse" color-interpolation-filters="sRGB">
<feFlood flood-opacity="0" result="BackgroundImageFix"/>
<feColorMatrix in="SourceAlpha" type="matrix" values="0 0 0 0 0 0 0 0 0 0 0 0 0 0 0 0 0 0 127 0" result="hardAlpha"/>
<feMorphology radius="40" operator="erode" in="SourceAlpha" result="effect1_dropShadow_0_9160"/>
<feOffset dy="40"/>
<feGaussianBlur stdDeviation="40"/>
<feColorMatrix type="matrix" values="0 0 0 0 0.858824 0 0 0 0 0.890196 0 0 0 0 0.929412 0 0 0 0.5 0"/>
<feBlend mode="normal" in2="BackgroundImageFix" result="effect1_dropShadow_0_9160"/>
<feBlend mode="normal" in="SourceGraphic" in2="effect1_dropShadow_0_9160" result="shape"/>
</filter>
</defs>
</svg>
