<svg width="500" height="520" viewBox="0 0 500 520" fill="none" xmlns="http://www.w3.org/2000/svg">
<g filter="url(#filter0_d_0_9092)">
<g filter="url(#filter1_d_0_9092)">
<rect width="500" height="500" rx="20" fill="white"/>
</g>
</g>
<circle opacity="0.2" cx="80" cy="80" r="40" fill="#C0D4E3"/>
<path fill-rule="evenodd" clip-rule="evenodd" d="M79.9698 81.0954C86.5805 81.0954 91.9395 85.358 91.9395 87.5477C91.9395 89.7374 86.5805 94 79.9698 94C73.359 94 68 89.7374 68 87.5477C68 85.358 73.359 81.0954 79.9698 81.0954ZM79.9698 66C83.5352 66 86.4256 68.8904 86.4256 72.4558C86.4256 76.0213 83.5352 78.9117 79.9698 78.9117C76.4043 78.9117 73.5139 76.0213 73.5139 72.4558C73.5139 68.8904 76.4043 66 79.9698 66Z" fill="#C0D4E3"/>
<rect x="140" y="86" width="147" height="20" rx="10" fill="#E1E8F1"/>
<rect x="140" y="50" width="220" height="20" rx="10" fill="#E1E8F1"/>
<g opacity="0.2" filter="url(#filter2_d_0_9092)">
<rect x="40" y="156" width="420" height="194" rx="20" fill="#C0D4E3"/>
</g>
<path fill-rule="evenodd" clip-rule="evenodd" d="M258.087 246.093C258.137 246.141 258.184 246.19 258.23 246.241L271.413 260.878C272.561 262.154 272.439 264.101 271.138 265.228C270.564 265.725 269.825 266 269.059 266H231.141C229.406 266 228 264.62 228 262.919C228 262.087 228.343 261.29 228.951 260.71L234.329 255.576C235.317 254.634 236.815 254.432 238.024 255.079L240.208 256.248C241.436 256.905 242.958 256.686 243.943 255.712L253.645 246.112C254.866 244.903 256.855 244.895 258.087 246.093ZM241.867 240C244.26 240 246.2 241.94 246.2 244.333C246.2 246.727 244.26 248.667 241.867 248.667C239.473 248.667 237.533 246.727 237.533 244.333C237.533 241.94 239.473 240 241.867 240Z" fill="#C0D4E3"/>
<g filter="url(#filter3_d_0_9092)">
<rect x="40" y="390" width="199" height="70" rx="20" fill="#FE905F"/>
</g>
<g opacity="0.3">
<g filter="url(#filter4_d_0_9092)">
<rect x="101.86" y="415" width="80" height="20" rx="10" fill="#E1E8F1"/>
</g>
</g>
<g filter="url(#filter5_d_0_9092)">
<rect x="260" y="390" width="199" height="70" rx="20" fill="#E1E8F1"/>
</g>
<g opacity="0.3">
<rect x="319.7" y="415" width="80" height="20" rx="10" fill="white"/>
</g>
<path fill-rule="evenodd" clip-rule="evenodd" d="M455 55C457.761 55 460 57.2386 460 60C460 62.7614 457.761 65 455 65C452.239 65 450 62.7614 450 60C450 57.2386 452.239 55 455 55ZM440 55C442.761 55 445 57.2386 445 60C445 62.7614 442.761 65 440 65C437.239 65 435 62.7614 435 60C435 57.2386 437.239 55 440 55ZM425 55C427.761 55 430 57.2386 430 60C430 62.7614 427.761 65 425 65C422.239 65 420 62.7614 420 60C420 57.2386 422.239 55 425 55Z" fill="#E1E8F1"/>
<defs>
<filter id="filter0_d_0_9092" x="0" y="0" width="500" height="520" filterUnits="userSpaceOnUse" color-interpolation-filters="sRGB">
<feFlood flood-opacity="0" result="BackgroundImageFix"/>
<feColorMatrix in="SourceAlpha" type="matrix" values="0 0 0 0 0 0 0 0 0 0 0 0 0 0 0 0 0 0 127 0" result="hardAlpha"/>
<feMorphology radius="40" operator="erode" in="SourceAlpha" result="effect1_dropShadow_0_9092"/>
<feOffset dy="20"/>
<feGaussianBlur stdDeviation="20"/>
<feColorMatrix type="matrix" values="0 0 0 0 0.858824 0 0 0 0 0.890196 0 0 0 0 0.929412 0 0 0 0.4 0"/>
<feBlend mode="normal" in2="BackgroundImageFix" result="effect1_dropShadow_0_9092"/>
<feBlend mode="normal" in="SourceGraphic" in2="effect1_dropShadow_0_9092" result="shape"/>
</filter>
<filter id="filter1_d_0_9092" x="0" y="0" width="500" height="520" filterUnits="userSpaceOnUse" color-interpolation-filters="sRGB">
<feFlood flood-opacity="0" result="BackgroundImageFix"/>
<feColorMatrix in="SourceAlpha" type="matrix" values="0 0 0 0 0 0 0 0 0 0 0 0 0 0 0 0 0 0 127 0" result="hardAlpha"/>
<feMorphology radius="40" operator="erode" in="SourceAlpha" result="effect1_dropShadow_0_9092"/>
<feOffset dy="20"/>
<feGaussianBlur stdDeviation="20"/>
<feColorMatrix type="matrix" values="0 0 0 0 0.858824 0 0 0 0 0.890196 0 0 0 0 0.929412 0 0 0 0.4 0"/>
<feBlend mode="normal" in2="BackgroundImageFix" result="effect1_dropShadow_0_9092"/>
<feBlend mode="normal" in="SourceGraphic" in2="effect1_dropShadow_0_9092" result="shape"/>
</filter>
<filter id="filter2_d_0_9092" x="40" y="156" width="420" height="214" filterUnits="userSpaceOnUse" color-interpolation-filters="sRGB">
<feFlood flood-opacity="0" result="BackgroundImageFix"/>
<feColorMatrix in="SourceAlpha" type="matrix" values="0 0 0 0 0 0 0 0 0 0 0 0 0 0 0 0 0 0 127 0" result="hardAlpha"/>
<feMorphology radius="40" operator="erode" in="SourceAlpha" result="effect1_dropShadow_0_9092"/>
<feOffset dy="20"/>
<feGaussianBlur stdDeviation="20"/>
<feColorMatrix type="matrix" values="0 0 0 0 0.858824 0 0 0 0 0.890196 0 0 0 0 0.929412 0 0 0 0.4 0"/>
<feBlend mode="normal" in2="BackgroundImageFix" result="effect1_dropShadow_0_9092"/>
<feBlend mode="normal" in="SourceGraphic" in2="effect1_dropShadow_0_9092" result="shape"/>
</filter>
<filter id="filter3_d_0_9092" x="40" y="390" width="199" height="90" filterUnits="userSpaceOnUse" color-interpolation-filters="sRGB">
<feFlood flood-opacity="0" result="BackgroundImageFix"/>
<feColorMatrix in="SourceAlpha" type="matrix" values="0 0 0 0 0 0 0 0 0 0 0 0 0 0 0 0 0 0 127 0" result="hardAlpha"/>
<feMorphology radius="40" operator="erode" in="SourceAlpha" result="effect1_dropShadow_0_9092"/>
<feOffset dy="20"/>
<feGaussianBlur stdDeviation="20"/>
<feColorMatrix type="matrix" values="0 0 0 0 0.858824 0 0 0 0 0.890196 0 0 0 0 0.929412 0 0 0 0.4 0"/>
<feBlend mode="normal" in2="BackgroundImageFix" result="effect1_dropShadow_0_9092"/>
<feBlend mode="normal" in="SourceGraphic" in2="effect1_dropShadow_0_9092" result="shape"/>
</filter>
<filter id="filter4_d_0_9092" x="61.8604" y="415" width="160" height="100" filterUnits="userSpaceOnUse" color-interpolation-filters="sRGB">
<feFlood flood-opacity="0" result="BackgroundImageFix"/>
<feColorMatrix in="SourceAlpha" type="matrix" values="0 0 0 0 0 0 0 0 0 0 0 0 0 0 0 0 0 0 127 0" result="hardAlpha"/>
<feMorphology radius="40" operator="erode" in="SourceAlpha" result="effect1_dropShadow_0_9092"/>
<feOffset dy="40"/>
<feGaussianBlur stdDeviation="40"/>
<feColorMatrix type="matrix" values="0 0 0 0 0.858824 0 0 0 0 0.890196 0 0 0 0 0.929412 0 0 0 0.5 0"/>
<feBlend mode="normal" in2="BackgroundImageFix" result="effect1_dropShadow_0_9092"/>
<feBlend mode="normal" in="SourceGraphic" in2="effect1_dropShadow_0_9092" result="shape"/>
</filter>
<filter id="filter5_d_0_9092" x="260" y="390" width="199" height="90" filterUnits="userSpaceOnUse" color-interpolation-filters="sRGB">
<feFlood flood-opacity="0" result="BackgroundImageFix"/>
<feColorMatrix in="SourceAlpha" type="matrix" values="0 0 0 0 0 0 0 0 0 0 0 0 0 0 0 0 0 0 127 0" result="hardAlpha"/>
<feMorphology radius="40" operator="erode" in="SourceAlpha" result="effect1_dropShadow_0_9092"/>
<feOffset dy="20"/>
<feGaussianBlur stdDeviation="20"/>
<feColorMatrix type="matrix" values="0 0 0 0 0.858824 0 0 0 0 0.890196 0 0 0 0 0.929412 0 0 0 0.4 0"/>
<feBlend mode="normal" in2="BackgroundImageFix" result="effect1_dropShadow_0_9092"/>
<feBlend mode="normal" in="SourceGraphic" in2="effect1_dropShadow_0_9092" result="shape"/>
</filter>
</defs>
</svg>
